<svg width="10" height="14" viewBox="0 0 10 14" fill="none" xmlns="http://www.w3.org/2000/svg">
<path d="M9.49988 5.03108C9.50548 4.22784 9.29588 3.43776 8.89298 2.74285C8.49008 2.04795 7.90851 1.47356 7.20867 1.07931C6.50882 0.68506 5.71619 0.485325 4.91309 0.50084C4.10998 0.516354 3.32566 0.746553 2.64156 1.16754C1.95746 1.58852 1.39852 2.18495 1.02275 2.89489C0.646987 3.60484 0.468097 4.40242 0.504667 5.20485C0.541227 6.00727 0.791917 6.78528 1.23069 7.45811C1.66947 8.13094 2.28034 8.67405 2.9999 9.03108V10.5311C2.9999 10.6637 3.05257 10.7909 3.14634 10.8846C3.24011 10.9784 3.36729 11.0311 3.4999 11.0311H6.4999C6.6325 11.0311 6.75968 10.9784 6.85345 10.8846C6.94722 10.7909 6.9999 10.6637 6.9999 10.5311V9.03108C7.74738 8.6628 8.37738 8.09336 8.81898 7.38675C9.26058 6.68013 9.49638 5.86434 9.49988 5.03108Z" stroke="#FA9549" stroke-linecap="round" stroke-linejoin="round"/>
<path d="M2.99988 13.5H6.99988" stroke="#FA9549" stroke-linecap="round" stroke-linejoin="round"/>
</svg>
