<svg width="14" height="14" viewBox="0 0 14 14" fill="none" xmlns="http://www.w3.org/2000/svg">
<path d="M13.3879 3.59338C13.3686 3.48859 13.3275 3.38903 13.2672 3.30116C13.2069 3.2133 13.1288 3.1391 13.0379 3.08338L11.0379 5.08338C10.9446 5.18016 10.8328 5.25715 10.7091 5.30973C10.5854 5.36231 10.4523 5.38941 10.3179 5.38941C10.1835 5.38941 10.0505 5.36231 9.92673 5.30973C9.80302 5.25715 9.69118 5.18016 9.5979 5.08338L8.8379 4.40338C8.65467 4.21645 8.55204 3.96513 8.55204 3.70338C8.55204 3.44163 8.65467 3.19031 8.8379 3.00338L10.8379 1.00338C10.7943 0.900916 10.7287 0.80929 10.6458 0.734984C10.5628 0.660679 10.4646 0.605509 10.3579 0.573379C9.66007 0.434219 8.93719 0.493787 8.27156 0.745302C7.60593 0.996817 7.02429 1.43017 6.59286 1.99603C6.16143 2.56189 5.89755 3.23752 5.83126 3.94599C5.76916 4.60965 5.88279 5.27715 6.1596 5.88179L0.792894 11.2484C0.396725 11.6446 0.403295 12.2889 0.807461 12.6769L1.36824 13.2153C1.75938 13.5908 2.37853 13.5862 2.76402 13.2048L8.19235 7.83534C8.77947 8.07781 9.41901 8.17004 10.0528 8.1021C10.7535 8.02698 11.4197 7.75897 11.9772 7.32787C12.5348 6.89676 12.9618 6.31947 13.2108 5.66017C13.4599 5.00088 13.5212 4.28543 13.3879 3.59338Z" stroke="#FA9549" stroke-linecap="round" stroke-linejoin="round"/>
</svg>
